<?xml version="1.0" encoding="UTF-8" standalone="no"?>
<!-- Created with Inkscape (http://www.inkscape.org/) -->

<svg
   xmlns:dc="http://purl.org/dc/elements/1.1/"
   xmlns:cc="http://creativecommons.org/ns#"
   xmlns:rdf="http://www.w3.org/1999/02/22-rdf-syntax-ns#"
   xmlns="http://www.w3.org/2000/svg"
   xmlns:sodipodi="http://sodipodi.sourceforge.net/DTD/sodipodi-0.dtd"
   xmlns:inkscape="http://www.inkscape.org/namespaces/inkscape"
   id="svg2"
   version="1.1"
   inkscape:version="0.91 r13725"
   xml:space="preserve"
   width="24"
   height="24"
   viewBox="0 0 24 24"
   sodipodi:docname="BLACK_Portrait.eps"><metadata
     id="metadata8"><rdf:RDF><cc:Work
         rdf:about=""><dc:format>image/svg+xml</dc:format><dc:type
           rdf:resource="http://purl.org/dc/dcmitype/StillImage" /><dc:title/></cc:Work></rdf:RDF></metadata><defs
     id="defs6" /><sodipodi:namedview
     pagecolor="#ffffff"
     bordercolor="#666666"
     borderopacity="1"
     objecttolerance="10"
     gridtolerance="10"
     guidetolerance="10"
     inkscape:pageopacity="0"
     inkscape:pageshadow="2"
     inkscape:window-width="640"
     inkscape:window-height="480"
     id="namedview4"
     showgrid="false"
     inkscape:zoom="28.235292"
     inkscape:cx="11.999998"
     inkscape:cy="16.645834"
     inkscape:current-layer="g10" /><g
     id="g10"
     inkscape:groupmode="layer"
     inkscape:label="ink_ext_XXXXXX"
     transform="matrix(1.25,0,0,-1.25,0,24)"><g
       id="g4209"
       transform="matrix(0.02015415,0,0,0.02015415,1.6000016,-1.7073851)"><path
         d="m 709.293,830.496 0,-349.034 c 0,-66.716 -43.543,-109.823 -110.941,-109.823 -67.383,0 -110.94,43.107 -110.94,109.823 l 0,273.26 9.299,0 0,-273.26 c 0,-61.074 39.891,-100.534 101.641,-100.534 61.761,0 101.65,39.46 101.65,100.534 l 0,273.26 -37.734,0 0,-273.26 c 0,-38.584 -20.784,-62.787 -63.916,-62.787 -43.123,0 -63.913,24.203 -63.913,62.787 l 0,311.28 -84.574,0 0,-300.692 c 0,-96.075 55.514,-153.433 148.487,-153.433 92.986,0 148.496,57.358 148.496,153.433 l 0,300.402 9.291,0 0,-300.402 c 0,-101.888 -58.977,-162.722 -157.787,-162.722 -98.797,0 -157.793,60.834 -157.793,162.722 l 0,338.419 -37.726,0 0,-338.419 c 0,-121.029 73.737,-200.456 195.519,-200.456 121.798,0 195.529,79.427 195.529,200.456 l 0,338.446 -84.588,0"
         style="fill:#231f20;fill-opacity:1;fill-rule:nonzero;stroke:none"
         id="path56"
         inkscape:connector-curvature="0" /><path
         d="m 129.365,420.24 63.61,0 c 17.174,0 67.194,0 67.194,50.746 0,45.74 -45.749,45.74 -67.194,45.74 l -63.61,0 0,-96.486 z m 0,209.424 47.89,0 c 18.597,0 57.186,0 57.186,42.161 0,40.035 -36.438,40.035 -57.186,40.035 l -47.89,0 0,-82.196 z M 0,830.496 l 162.961,0 c 89.345,0 130.799,-8.576 169.393,-51.462 23.585,-24.292 31.453,-56.456 31.453,-87.199 0,-40.73 -18.588,-82.192 -61.475,-106.497 85.06,-30.009 87.197,-100.759 87.197,-122.925 0,-42.173 -16.439,-88.644 -48.595,-115.06 -48.589,-40.759 -83.617,-45.761 -172.969,-45.761 L 0,301.592 0,830.496"
         style="fill:#231f20;fill-opacity:1;fill-rule:nonzero;stroke:none"
         id="path58"
         inkscape:connector-curvature="0" /></g></g></svg>